<svg width="50" height="50" viewBox="0 0 50 50" fill="black" xmlns="http://www.w3.org/2000/svg">
  <path
    d="M23.2378 0.29189C21.8004 0.791951 20.6005 1.86708 19.9631 3.20474C19.6131 3.95483 19.5632 4.20486 19.5132 5.36751C19.4757 6.49264 19.5132 6.80518 19.7631 7.55527C20.0256 8.31786 20.1881 8.54289 21.063 9.4305C22.4253 10.7932 23.1003 11.0557 25.125 11.0557C26.5124 11.0557 26.5874 11.0307 27.3748 10.6306C28.4497 10.0806 29.662 8.85543 30.0745 7.90531C30.8494 6.1676 30.6494 3.97984 29.5746 2.44215C28.9996 1.61705 27.8497 0.654434 27.1873 0.454411C27.0498 0.416905 26.7124 0.29189 26.4374 0.191878C25.6625 -0.0956564 24.2251 -0.0581522 23.2378 0.29189Z"
   />
  <path
    d="M7.01456 5.70502C6.18965 5.99256 5.10227 7.11769 4.7648 8.0303C4.22736 9.50548 4.53983 11.0807 5.61471 12.2183C6.78958 13.456 8.67687 13.806 10.1642 13.0684C11.0516 12.6434 11.6515 12.0683 12.064 11.2432C12.4765 10.4181 12.5139 8.70538 12.1265 7.84278C11.7765 7.05518 10.9016 6.18008 10.0892 5.80503C9.26431 5.42999 7.91446 5.39248 7.01456 5.70502Z"
    />
  <path
    d="M39.811 5.86756C37.3237 7.14272 36.7738 10.3431 38.6986 12.2933C40.2609 13.856 42.8606 13.8185 44.3854 12.2183C45.4978 11.0307 45.7853 9.468 45.1853 7.95532C44.7854 6.9802 44.1605 6.30512 43.1856 5.84256C42.5606 5.55503 42.2732 5.49252 41.4858 5.49252C40.6859 5.49252 40.4359 5.54253 39.811 5.86756Z"
   />
  <path
    d="M21.2504 12.4309C19.6505 12.7184 17.3383 13.656 16.5884 14.2936C16.1509 14.6811 15.901 15.3437 13.8137 21.7445L13.1138 23.9322L13.2513 27.8702C13.4262 33.0708 13.4262 33.0959 14.1512 33.6209C14.5886 33.9335 14.7761 33.996 15.4135 33.996C16.3509 33.996 16.8634 33.6834 17.2508 32.8958C17.5258 32.3583 17.5258 32.3208 17.4133 28.4703C17.3383 26.245 17.3383 24.4448 17.4008 24.2573C17.4508 24.0823 17.7883 23.0696 18.1382 22.007C18.4757 20.9444 18.8506 19.9193 18.9631 19.7067C19.1256 19.3817 19.1756 19.3567 19.2631 19.5317C19.3381 19.6442 19.4131 25.7825 19.4631 33.996L19.5381 48.2477L19.9255 48.8353C20.8254 50.1979 22.5752 50.3979 23.7876 49.2603C24.525 48.5852 24.5 48.9228 24.5 40.6218V32.9958H25H25.4999V40.6218C25.4999 48.9228 25.4749 48.5852 26.2123 49.2603C26.7623 49.7854 27.2997 49.9979 28.0371 49.9979C28.8995 49.9979 29.6994 49.5103 30.1619 48.7102L30.4993 48.1352V36.3337C30.4993 22.082 30.5743 19.0317 30.9243 19.3817C31.0118 19.4692 31.8367 21.857 32.3491 23.4947L32.7241 24.6823L32.5991 28.5203C32.4741 32.3333 32.4741 32.3583 32.7491 32.8958C33.1366 33.6584 33.5365 33.921 34.4614 33.971C35.0988 34.021 35.3113 33.971 35.6863 33.7459C35.9362 33.5959 36.2112 33.3459 36.3112 33.1959C36.5237 32.8708 36.6987 30.6456 36.8111 26.7201L36.8986 24.0073L36.1237 21.5945C34.2739 15.8438 33.949 14.9562 33.549 14.4311C33.199 13.9685 32.0367 13.406 30.3244 12.8559C29.1495 12.4934 27.1622 12.1558 26.8622 12.2683C26.7623 12.3058 26.3373 12.8434 25.9124 13.456L25.1499 14.5686L25.3124 15.6187C25.5374 17.0564 25.9373 19.9068 26.2623 22.182C26.3998 23.2072 26.5998 24.5573 26.6998 25.1699L26.8747 26.2825L26.3998 26.8576C26.1498 27.1701 25.7249 27.6577 25.4624 27.9327L24.9875 28.4328L24.675 28.0577C24.5 27.8452 24.175 27.4827 23.9501 27.2451C23.0502 26.2325 23.1127 26.42 23.3126 25.1074C23.5251 23.6447 23.9251 20.8694 24.2625 18.4941C24.4 17.494 24.5875 16.2063 24.6875 15.6187L24.85 14.5561L24.325 13.806C23.1377 12.0808 23.1377 12.0808 21.2504 12.4309Z"
   />
  <path
    d="M38.8733 14.3686C37.6485 14.6436 36.6611 14.9812 36.2111 15.2812C36.0237 15.3937 35.8362 15.4937 35.7737 15.4937C35.7237 15.4937 35.5237 15.6562 35.3362 15.8438L34.9988 16.1938L35.2363 16.9439C35.3737 17.3439 35.7112 18.4316 35.9987 19.3317C36.2736 20.2443 36.5486 20.9944 36.6111 20.9944C36.6611 20.9944 36.7736 20.7569 36.8611 20.4568C37.136 19.5692 37.2485 19.3192 37.3735 19.4442C37.436 19.5067 37.4985 24.1073 37.5235 29.6829C37.5735 41.1593 37.511 40.4842 38.5484 40.9968C39.1608 41.2843 39.3483 41.2968 40.0107 41.1093C40.7481 40.8843 40.9981 40.5217 41.1356 39.5341C41.1856 39.0716 41.2356 36.5088 41.2481 33.8334V28.9953H41.5481H41.8605L41.898 34.6335L41.9355 40.2717L42.398 40.6843C43.2604 41.4844 44.4477 41.3844 45.1227 40.4467L45.4976 39.9467L45.5101 30.1955C45.5101 24.8198 45.5601 20.1818 45.5976 19.8692C45.7101 19.1317 45.7976 19.2692 46.46 21.3069L46.9974 22.9321V26.0075V29.0829L47.3224 29.4079C47.7599 29.8455 48.3223 29.9455 48.9597 29.6829C49.7846 29.3579 49.8596 29.0079 49.9596 25.4949C50.0346 22.6696 50.0221 22.4946 49.7721 21.732C49.6222 21.2944 49.1597 19.8942 48.7348 18.6191C48.3098 17.3439 47.8599 16.1313 47.7224 15.9313C47.2724 15.2562 44.9102 14.3561 43.5103 14.3186L42.7229 14.3061L42.1855 15.0687L41.6355 15.8438L41.823 17.1314C41.923 17.844 42.1105 19.2192 42.2605 20.1818C42.398 21.1444 42.5729 22.357 42.6354 22.8696C42.7104 23.3822 42.7979 23.9197 42.8229 24.0573C42.8604 24.2323 42.6854 24.5323 42.223 25.0324L41.5606 25.77L41.2481 25.4699C41.0731 25.3199 40.7731 24.9824 40.5857 24.7323C40.2482 24.2948 40.2482 24.2573 40.3607 23.3572C40.7231 20.6693 41.0356 18.4191 41.2106 17.3439C41.3106 16.6689 41.3731 15.9938 41.3231 15.8438C41.2481 15.5312 40.1732 14.1185 40.0232 14.131C39.9732 14.131 39.4608 14.2436 38.8733 14.3686Z"
    />
  <path
    d="M5.81463 14.3311C5.1772 14.4811 3.63987 15.0187 3.11493 15.2812C2.78997 15.4312 2.41501 15.7187 2.27752 15.9313C2.14004 16.1313 1.69009 17.3439 1.26514 18.6191C0.840184 19.8942 0.377736 21.2944 0.227752 21.732C-0.0222198 22.4946 -0.0347184 22.6696 0.0402733 25.5574C0.127764 28.9703 0.202755 29.3079 0.965171 29.6704C1.6401 29.9955 2.09005 29.908 2.72747 29.3329C3.00244 29.0829 3.00244 29.0329 3.00244 26.0075V22.9321L3.58988 21.1444C3.90234 20.1693 4.21481 19.3692 4.25231 19.3692C4.46478 19.3692 4.50228 20.8319 4.50228 29.8079C4.51478 35.0336 4.56477 39.5591 4.61477 39.8717C4.88973 41.2593 6.66454 41.6969 7.68942 40.6218L8.06438 40.2342L8.10188 34.6085L8.13937 28.9953H8.45184H8.75181V33.8334C8.7643 36.5088 8.8143 39.0716 8.86429 39.5341C9.00178 40.5217 9.25175 40.8843 9.98917 41.1093C10.6516 41.2968 10.8391 41.2843 11.4515 40.9968C12.4889 40.4842 12.4264 41.1468 12.4764 29.6829C12.5014 24.1073 12.5639 19.5067 12.6264 19.4442C12.7514 19.3192 12.9388 19.6692 13.0513 20.2568C13.0888 20.4943 13.2013 20.8069 13.3013 20.9319C13.4763 21.1694 13.6013 20.8194 14.7511 17.1439L15.0386 16.2313L14.7511 15.9313C14.1387 15.2812 11.9265 14.4061 10.5766 14.2811L9.77669 14.2061L9.20176 14.9936C8.88929 15.4187 8.62682 15.8938 8.62682 16.0438C8.62682 16.2063 8.71431 16.8314 8.8018 17.4439C8.90179 18.0565 9.10177 19.3942 9.25175 20.4318C9.38923 21.4569 9.56422 22.7446 9.65171 23.2697C9.78919 24.2198 9.78919 24.2323 9.45173 24.6823C9.26425 24.9199 8.96428 25.2699 8.8018 25.4574L8.48934 25.795L7.80191 25.0574C7.33946 24.5448 7.13948 24.2323 7.17698 24.0572C7.21448 23.9197 7.28947 23.3572 7.37696 22.8071C7.53944 21.5944 7.9269 18.9066 8.18937 17.1439C8.37685 15.8688 8.37685 15.8563 8.10188 15.4562C7.9394 15.2312 7.78941 15.0312 7.75192 14.9936C7.71442 14.9561 7.58943 14.7811 7.46445 14.5811C7.27697 14.2811 7.17698 14.2436 6.65204 14.2561C6.32708 14.2686 5.95212 14.2936 5.81463 14.3311Z"
    />
</svg>
