<svg width="45" height="45" viewBox="0 0 45 45" fill="none" xmlns="http://www.w3.org/2000/svg">
    <path 
          d="M27.1547 2.26195C25.6744 2.51063 24.2889 3.29221 23.1284 4.53563C22.0508 5.68432 21.4705 7.01063 21.2692 8.76326L21.21 9.29616L21.9915 9.88826C23.5192 11.0369 24.656 12.8133 25.1534 14.8146L25.4258 15.9277L26.1836 16.2001C27.8534 16.8159 30.0323 16.6501 31.7613 15.7856C32.8508 15.2409 34.2481 13.8672 34.7929 12.8251C35.6218 11.2383 35.8586 9.26063 35.4086 7.51984C34.4968 3.94353 30.885 1.63432 27.1547 2.26195Z" 
          fill="#008000"
    />
<path d="M14.8263 9.7579C13.2513 10.1487 11.4987 11.3803 10.5868 12.7539C10.3381 13.1211 9.98287 13.8908 9.78156 14.4474C9.47366 15.3355 9.4263 15.6079 9.43814 16.7566C9.43814 18.3197 9.78156 19.5276 10.5395 20.6882C11.9013 22.7487 14.1276 23.9447 16.6263 23.9329C19.5158 23.9211 21.8842 22.4171 23.1039 19.8355C25.046 15.7145 22.7131 10.8 18.3316 9.76974C17.4316 9.55658 15.6908 9.55658 14.8263 9.7579Z" fill="#008000"/>
<path d="M25.3071 17.7751C25.1532 19.504 24.3716 21.2448 23.1163 22.6422C22.7374 23.0566 22.7019 23.329 23.0216 23.329C23.294 23.329 25.1532 24.2882 25.8756 24.8093C26.5387 25.2829 27.7466 26.4435 28.2795 27.1066C28.4098 27.2724 28.5637 27.3553 28.6348 27.3079C28.7177 27.2606 29.0966 26.8106 29.4756 26.3132C30.79 24.5961 33.94 21.5408 35.8822 20.0961C37.3861 18.9711 37.2677 19.1132 36.9716 18.7935C36.569 18.3672 35.2072 17.6922 34.0466 17.3369C33.0045 17.0172 32.9098 17.0172 29.1795 16.9579L25.3782 16.9106L25.3071 17.7751Z" 
fill="#008000"/>
<path d="M37.9191 22.4171C36.7113 23.8737 36.7941 23.779 35.6691 25.3066C34.9705 26.254 33.3481 28.7171 32.9691 29.4158C32.8981 29.5579 32.6849 29.925 32.5073 30.2566C32.3297 30.5763 31.8086 31.5829 31.3586 32.4829C30.6126 33.9632 30.5297 34.2 30.4705 35.0171L30.3994 35.9171L31.7613 35.8461C34.6863 35.6803 38.2626 34.8513 40.181 33.904L40.7376 33.6316V29.6882C40.7376 25.4724 40.6665 24.5961 40.2047 23.2105C39.9086 22.3105 39.2691 21.079 39.1034 21.079C39.056 21.079 38.5231 21.6829 37.9191 22.4171Z" fill="#008000"/>
<path d="M11.3688 24.6316C8.23064 25.4132 5.86222 27.604 4.77275 30.7303L4.45301 31.6777L4.40564 36.4382L4.37012 41.1987L5.17538 41.4356C9.29643 42.6553 12.5056 43.1882 16.5793 43.2948C19.7649 43.3895 23.2464 43.0106 25.3425 42.3474C25.8635 42.1816 25.8635 42.1816 25.4846 42.1698C24.6912 42.1461 24.3478 41.8382 22.8201 39.7895C20.6649 36.9119 18.8767 35.4672 14.8622 33.3356C14.4122 33.0987 13.903 32.7908 13.7609 32.6487C12.9793 31.9264 12.8135 30.7422 13.3346 29.6882C13.7254 28.9185 14.6491 27.5448 15.1227 27.0356C15.632 26.4908 16.5201 26.0527 17.1004 26.0527C18.178 26.0527 20.1083 26.7869 21.0556 27.5685C22.5359 28.7645 24.1464 30.3751 24.9754 31.5001C25.2478 31.8553 25.532 32.1514 25.6149 32.1514C25.6859 32.1514 25.8872 31.879 26.053 31.5593C26.2188 31.2277 26.5385 30.6474 26.7635 30.2566C27.557 28.8948 27.5451 28.9303 27.2964 28.4448C26.9649 27.8172 25.2833 26.183 24.4899 25.7093C24.1109 25.4961 23.4833 25.1882 23.0925 25.0224C21.6714 24.454 21.103 24.3948 16.5201 24.4066C12.778 24.4066 12.1504 24.4422 11.3688 24.6316Z" fill="#008000"/>
<path d="M28.3149 39.1145C27.8412 40.1684 27.5096 40.7961 27.1543 41.329C27.0004 41.554 26.9293 41.7553 26.9886 41.779C27.0478 41.8026 27.5096 41.6487 27.9951 41.4474L28.8951 41.0684V39.7303C28.8951 38.9842 28.8478 38.3566 28.7886 38.3211C28.7412 38.2855 28.5162 38.6408 28.3149 39.1145Z" fill="#008000"/>
<path d="M40.1958 16.055C39.2533 16.6534 38.2839 17.3087 38.0415 17.5366C37.7722 17.7645 37.1798 18.2204 36.749 18.5053C35.3217 19.474 31.2556 23.6338 29.9091 25.5143C29.5321 26.0556 29.0205 26.6824 28.8051 26.9388C28.5896 27.1668 27.8626 28.3634 27.2163 29.5316L26.0045 31.6969L25.0082 30.3578C22.9077 27.5372 20.1341 25.5428 17.926 25.3148C16.6065 25.1724 16.4449 25.2294 15.5294 26.0841C14.9908 26.5685 14.156 27.6796 13.6982 28.5629C12.2979 31.1271 12.9712 32.7796 16.0141 34.2042C16.7681 34.5746 17.7375 35.2014 18.1683 35.6003C18.6261 35.9992 19.0839 36.3411 19.1916 36.3411C19.5955 36.3411 23.177 40.4154 23.9849 41.783C24.0657 41.9539 25.0082 42.0394 26.0853 41.9824L28.0241 41.8969L28.6704 40.6148C29.0205 39.9025 30.2323 37.1673 31.3902 34.5176C32.5481 31.8679 33.8945 29.1327 34.3793 28.3919C34.864 27.6796 35.2679 26.9958 35.2679 26.8819C35.2679 26.5685 38.2839 22.4372 40.2227 20.1009C41.9192 18.0495 42 17.907 42 16.4539C42 15.6562 41.9731 14.9724 41.9461 15.0009C41.8923 15.0009 41.1114 15.4852 40.1958 16.055Z" fill="#FF0000"/>
</svg>
