<svg viewBox="0 0 73 50" fill="black" >
  <g clip-path="url(#clip0)">
    <path
      d="M51.7442 0.159879C50.1745 0.465112 48.8373 1.51162 48.0088 3.08139C47.6309 3.77907 47.6018 3.98255 47.6018 5.3779C47.6018 6.64244 47.6599 7.02034 47.9216 7.60174C48.4012 8.61918 49.564 9.76744 50.6251 10.2616C51.4099 10.625 51.7006 10.6831 52.8344 10.6831C53.9681 10.6831 54.2588 10.625 55.0437 10.2616C56.1047 9.76744 57.2675 8.61918 57.7472 7.60174C58.0088 7.02034 58.0669 6.64244 58.0669 5.3779C58.0669 3.90988 58.0524 3.80814 57.5727 2.93604C56.7588 1.43895 55.4361 0.465112 53.7937 0.145345C52.907 -0.0145397 52.6599 -0.0145397 51.7442 0.159879Z"
     />
    <path
      d="M15.5524 1.20639C14.2297 1.58429 13.0379 2.61627 12.442 3.90987C12.2094 4.43313 12.1367 4.85464 12.1367 5.88662C12.1367 7.03487 12.1949 7.28197 12.5437 7.96511C13.0379 8.90987 13.8954 9.7529 14.7966 10.2035C15.3635 10.4796 15.7123 10.5378 16.8606 10.5378C18.4739 10.5378 19.2879 10.2325 20.2763 9.22964C21.2792 8.24127 21.5844 7.42732 21.5844 5.81394C21.5844 4.60755 21.5408 4.34592 21.192 3.70639C20.7268 2.80522 19.6803 1.81685 18.8082 1.43894C17.9797 1.07557 16.41 0.959292 15.5524 1.20639Z"
     />
    <path
      d="M34.128 2.60177C33.0669 2.9506 32.5001 3.31398 31.6571 4.17153C28.7937 7.10758 29.7239 11.9186 33.4884 13.6773C36.41 15.0436 39.9274 13.75 41.3228 10.7849C41.7588 9.88374 41.7879 9.69479 41.7879 8.28491C41.7879 6.87502 41.7588 6.68607 41.3228 5.78491C40.7268 4.52037 39.6658 3.45932 38.4303 2.87793C37.1803 2.29653 35.3925 2.18025 34.128 2.60177Z"
      />
    <path
      d="M12.0204 11.6279C11.1773 11.9622 10.189 12.7035 9.57851 13.4593L9.12793 14.0262L12.8489 14.0988C16.3227 14.1715 16.5843 14.186 16.846 14.4622C17.093 14.6948 17.2093 15.2762 17.5146 17.6744C17.718 19.2733 17.8779 20.6395 17.8779 20.6831C17.8779 20.7413 18.3576 20.7849 18.9535 20.7849H20.0291L19.9564 19.8546C19.8401 18.5174 19.9564 18.4593 22.7762 18.4593C23.9971 18.4593 25 18.4012 25 18.3285C25 18.2558 25.2907 17.8052 25.6541 17.3256L26.2936 16.439L26.0175 15.6105C25.2762 13.4593 23.4012 11.7006 21.5553 11.3953C21.0901 11.3227 20.7413 11.3953 19.9855 11.7006C17.9215 12.5145 16.3082 12.5145 14.4477 11.7006C13.4739 11.2645 12.9651 11.25 12.0204 11.6279Z"
      />
    <path
      d="M46.846 11.7587C45.7268 12.1802 44.5495 13.0523 43.8809 13.968L43.6047 14.3459L44.4623 14.8692C45.7995 15.6977 47.1222 17.2093 47.878 18.7791C48.2414 19.5203 48.6047 20.5378 48.7065 21.032L48.8954 21.9477H50.3199C51.1047 21.9477 51.7443 21.9041 51.7443 21.8314C51.7443 21.7732 51.9187 20.3052 52.1367 18.5465C52.4419 16.0756 52.5873 15.3052 52.8053 15.0291L53.0669 14.6802H57.2821C59.5931 14.6802 61.4826 14.6366 61.4826 14.5639C61.4826 14.3459 60.1309 12.9215 59.5059 12.4855C58.7792 11.9913 57.4274 11.4825 56.8169 11.4825C56.5989 11.4825 56.0757 11.6424 55.6396 11.8459C55.2181 12.0349 54.3751 12.311 53.7792 12.4418C52.4419 12.7471 51.1338 12.6017 49.7094 11.9913C48.4885 11.468 47.7908 11.4099 46.846 11.7587Z"
     />
    <path
      d="M30.5233 15.2035C29.375 15.5087 28.2994 16.2064 27.2093 17.3692L26.25 18.3866L30.9448 18.4593L35.6395 18.532L35.9448 18.8954C36.2209 19.2151 36.3227 19.7384 36.6715 22.6744C36.9041 24.5494 37.1221 26.2064 37.1512 26.3372C37.2238 26.5843 37.6017 26.5988 42.4709 26.5988H47.7035L47.6453 23.939C47.5872 21.657 47.5436 21.1628 47.2529 20.3488C46.2936 17.6308 44.1424 15.5814 41.7006 15.1018C40.9448 14.9564 40.843 14.9709 40.1308 15.3343C39.1134 15.843 37.3692 16.2791 36.3517 16.2791C35.2907 16.2791 33.9535 15.9593 32.7616 15.407C31.6715 14.9128 31.6279 14.9128 30.5233 15.2035Z"
      />
    <path
      d="M5.23267 15.6541C5.23267 15.7994 5.36348 16.9331 5.52336 18.1686C5.68325 19.4041 5.81406 20.5087 5.81406 20.5959C5.81406 20.7413 6.99139 20.7849 11.192 20.7849C16.221 20.7849 16.5699 20.7703 16.5699 20.5233C16.5699 20.3924 16.4391 19.2587 16.2792 18.0233C16.1193 16.7878 15.9885 15.6831 15.9885 15.5814C15.9885 15.4506 14.8112 15.407 10.6106 15.407C5.5815 15.407 5.23267 15.4215 5.23267 15.6541Z"
      />
    <path
      d="M53.7645 15.8721C53.7645 15.9012 53.5756 17.2674 53.3721 18.9244L52.9651 21.9477H59.0988H65.218L65.5378 19.2878C65.7122 17.8343 65.8866 16.468 65.9302 16.2355L66.0174 15.843H59.8982C56.5261 15.843 53.779 15.8575 53.7645 15.8721Z"
      />
    <path
      d="M21.2209 20.0145C21.2355 20.1599 21.4099 21.6861 21.6279 23.4012L22.0204 26.5262L28.968 26.5988C32.7762 26.6424 35.9012 26.6424 35.9012 26.6134C35.9012 26.468 35.1744 20.6686 35.1018 20.2326L35.0146 19.7675H28.125C21.6425 19.7675 21.2209 19.782 21.2209 20.0145ZM28.6192 22.1076C29.0698 22.2674 29.5058 22.8634 29.5058 23.3285C29.5058 23.7355 28.7064 24.4186 28.2413 24.4186C27.3983 24.4186 26.8023 23.4012 27.1948 22.689C27.3547 22.4128 27.8925 21.9913 28.1396 21.9477C28.1541 21.9477 28.3576 22.0204 28.6192 22.1076Z"
      />
    <path
      d="M0 30.814V39.5349H6.39535H12.7907V36.6279V33.7209H11.0465H9.30233V30.1599V26.5988L15.0436 26.6279C18.1977 26.657 20.7849 26.6715 20.7849 26.6715C20.7849 26.6715 20.2035 22.1512 20.2035 22.1221C20.2035 22.1076 15.6541 22.093 10.1017 22.093H0V30.814Z"
      />
    <path
      d="M48.9827 24.9564V26.6715L54.7966 26.6279L60.6106 26.5988V30.1599V33.7209H58.8664H57.1222V38.3721V43.0233H64.6803H72.2385V33.1395V23.2558H60.6106H48.9827V24.9564Z"
      />
    <path
      d="M10.4943 30.1889L10.5379 32.4855L12.3257 32.5291L14.0989 32.5727V41.2791V50H34.9565H55.8141V41.2791V32.5581H57.5582H59.2879L59.3315 30.2325L59.3751 27.907H34.9129H10.4507L10.4943 30.1889Z"
      />
  </g>
  <defs>
    <clipPath id="clip0">
      <rect width="72.2384" height="50"/>
    </clipPath>
  </defs>
</svg>
