<svg width="50" height="50" viewBox="0 0 50 50" fill="black" xmlns="http://www.w3.org/2000/svg">
  <g id="patient group">
    <g id="Layer">
      <path id="Layer_2"
            d="M12.8532 6.13334C12.7866 6.20001 12.4799 6.29334 12.1599 6.33334C10.5332 6.53334 8.62657 8.42667 8.4799 9.98667C8.45324 10.2933 8.34657 10.64 8.25324 10.7467C8.14657 10.88 8.0799 11.4267 8.06657 12.3067L8.05324 13.6667L7.57324 14.16C7.30657 14.44 7.05324 14.84 6.9999 15.0667C6.89324 15.5333 7.02657 16.4933 7.21324 16.6133C7.2799 16.6533 7.33324 16.8267 7.33324 17.0133C7.33324 17.2 7.3999 17.4667 7.4799 17.6267C7.6399 17.92 8.69324 18.96 9.33324 19.44C9.54657 19.6133 9.73324 19.8533 9.73324 19.9733C9.73324 20.0933 9.9199 20.52 10.1332 20.92C10.4532 21.4933 10.5332 21.8133 10.5332 22.4133C10.5332 24.04 9.82657 24.8133 7.7999 25.4C7.3599 25.5333 6.82657 25.72 6.5999 25.8133C6.38657 25.9067 5.98657 25.9733 5.70657 25.9733C4.8799 25.9733 3.6799 26.6133 2.82657 27.52C2.01324 28.3867 1.18657 29.9067 1.1199 30.6133C1.10657 30.8533 0.986572 31.2667 0.853238 31.5333C0.533238 32.2133 0.559905 33.0933 0.919905 33.4533C1.0799 33.6133 1.1999 33.7867 1.1999 33.8667C1.1999 34.04 1.7599 34.4 2.14657 34.4667C2.3199 34.5067 2.70657 34.6533 2.9999 34.8C3.3199 34.96 3.78657 35.0667 4.1999 35.0667C4.57324 35.0667 4.94657 35.1333 5.02657 35.2133C5.1199 35.3067 5.65324 35.3733 6.3599 35.3733C6.9999 35.3733 7.5999 35.4133 7.66657 35.48C7.74657 35.5333 8.4799 35.5733 9.29324 35.56L10.7866 35.5467L11.0132 35C11.1466 34.7067 11.3599 34.3067 11.4932 34.12C11.6132 33.9333 11.6932 33.7333 11.6399 33.6933C11.4266 33.48 13.8799 31.0133 14.2266 31.08C14.2799 31.0933 14.5599 31 14.8399 30.88C15.1199 30.76 15.7199 30.5733 16.1732 30.4533C16.6266 30.3467 17.1199 30.2 17.2666 30.1333C17.4132 30.0667 17.7199 30.0133 17.9332 30.0267C18.4266 30.04 19.2932 29.68 19.7066 29.2933C19.9999 29.0267 20.0132 28.9333 19.9332 28.1333C19.8799 27.6533 19.7599 27.1067 19.6532 26.92C19.4399 26.48 18.6132 25.6267 18.0399 25.2267C17.7999 25.0533 17.4799 24.64 17.3332 24.2933C17.1866 23.96 16.9599 23.5733 16.8532 23.4533C16.7332 23.32 16.6132 22.8267 16.5599 22.1867C16.4132 20.3733 16.4266 20.24 16.9999 19.4533C17.5066 18.7733 17.5332 18.68 17.5466 17.7333C17.5732 15.8533 18.2799 14.0667 19.5332 12.6667L20.2132 11.9333L20.1199 11.04C20.0666 10.4933 19.9066 9.94667 19.7466 9.69334C19.5999 9.44 19.5066 9.21334 19.5466 9.16C19.6799 9.02667 19.2399 8.33334 18.8132 8.02667C18.5866 7.85334 18.4266 7.66667 18.4532 7.61334C18.5332 7.48 17.8132 6.93334 17.4666 6.86667C17.3332 6.84001 17.0399 6.69334 16.8266 6.53334C16.2532 6.10667 13.1999 5.78667 12.8532 6.13334Z"
      />
      <path id="Layer_3"
            d="M34.0799 6.21332C33.8799 6.33332 33.5866 6.39999 33.4533 6.35999C33.1066 6.26666 31.7733 7.07999 31.1466 7.77332C30.5866 8.38665 29.9999 9.43999 30.0933 9.69332C30.1199 9.77332 30.0666 10.0133 29.9599 10.2267C29.8533 10.4267 29.7199 10.9067 29.6666 11.2933C29.5733 11.96 29.5866 11.9867 29.9866 12.2C30.2133 12.3067 30.3999 12.4667 30.3999 12.5467C30.3999 12.6133 30.6266 12.9867 30.9066 13.3733C31.1866 13.76 31.5199 14.36 31.6533 14.7333C31.7999 15.0933 31.9466 15.4533 31.9999 15.5333C32.1066 15.6667 32.2799 17.12 32.3333 18.2C32.3466 18.56 32.5066 18.96 32.8133 19.4267C33.2533 20.08 33.2799 20.1866 33.3199 21.36C33.3466 22.5333 33.3199 22.6533 32.8799 23.5733C32.5199 24.2933 32.1466 24.7866 31.3466 25.5733C30.7733 26.1333 30.2133 26.8133 30.1066 27.0666C29.8266 27.7333 29.7199 28.3733 29.8666 28.4666C29.9466 28.5066 29.9999 28.6933 29.9999 28.8666C29.9999 29.24 30.5733 29.7333 31.0266 29.7333C31.1999 29.7333 31.4799 29.8266 31.6533 29.9333C31.8133 30.04 32.3333 30.1733 32.8133 30.2133C33.2799 30.2666 33.7333 30.3466 33.7999 30.4C33.9733 30.5333 34.9333 30.8533 35.2133 30.88C35.5199 30.9066 37.2399 32.3333 37.5066 32.7866C37.6399 33.0133 37.8666 33.2533 37.9999 33.3333C38.1466 33.4133 38.3199 33.6933 38.3866 33.9733C38.4666 34.24 38.6933 34.7333 38.8933 35.04L39.2666 35.6133L41.5199 35.5333C42.7733 35.4933 43.8933 35.4 44.0133 35.32C44.1466 35.2533 44.5466 35.2 44.8933 35.2C46.5199 35.2 48.5066 34.2666 48.9466 33.28C49.2666 32.56 49.2666 31.8533 48.9333 31.1866C48.7733 30.8933 48.6933 30.6 48.7333 30.5333C48.8266 30.3866 48.3999 29.44 48.1733 29.2933C48.0933 29.24 47.9866 29.0133 47.9333 28.8C47.8266 28.2933 46.1466 26.5333 45.7733 26.5333C45.6133 26.5333 45.4266 26.4533 45.3466 26.3466C45.1733 26.1333 43.9466 25.8 43.7599 25.92C43.6933 25.96 43.4933 25.9066 43.3199 25.8133C42.9599 25.6266 42.2933 25.4666 41.6533 25.3866C41.1199 25.3333 39.4799 24.2 39.4799 23.8933C39.4799 23.7733 39.4266 23.28 39.3599 22.8C39.2399 21.9066 39.3199 21.32 39.6399 20.9467C39.7466 20.8267 40.0133 20.3867 40.2533 19.9733C40.4799 19.56 40.7866 19.1733 40.9199 19.1333C41.7199 18.88 42.8799 17.0533 42.7599 16.2267C42.7333 16 42.7466 15.6533 42.7999 15.4667C42.9466 14.92 42.7066 14.32 42.2266 14.0133C41.7866 13.7467 41.7866 13.7333 41.8399 12.8667C41.8666 12.3867 41.8399 11.92 41.7599 11.8267C41.6933 11.7467 41.6266 11.3467 41.6266 10.9733C41.6266 10.5333 41.5333 10.08 41.3733 9.77332C41.2266 9.49332 41.0666 9.10665 41.0266 8.90665C40.9199 8.50665 39.2933 6.79999 39.0133 6.79999C38.9066 6.79999 38.5333 6.65332 38.1733 6.46666C37.6133 6.17332 37.2933 6.11999 35.9999 6.05332C34.7466 6.01332 34.3999 6.03999 34.0799 6.21332Z"
      />
      <path id="Layer_4"
            d="M23.3732 11.8534C23.1332 11.92 22.8532 12.04 22.7465 12.12C22.6398 12.2134 22.4132 12.2934 22.2398 12.32C22.0665 12.3334 21.7865 12.4267 21.6132 12.5334C21.1065 12.8 19.9998 13.88 19.7598 14.3334C19.5465 14.7334 19.5198 14.8 19.4932 15.2267C19.4798 15.3467 19.3865 15.5334 19.3065 15.6267C19.1065 15.84 19.0665 15.9467 18.9065 16.9334C18.8398 17.3334 18.8265 17.8667 18.8665 18.0934C18.9865 18.7734 18.8132 19.4134 18.4798 19.5734C18.3065 19.6534 18.0798 19.92 17.9598 20.1734C17.7065 20.6934 17.6532 21.6667 17.8665 21.8C17.9332 21.84 17.9865 22.1067 17.9732 22.3734C17.9598 22.92 18.1065 23.28 18.5998 23.8267C19.3198 24.64 19.5198 24.8 19.7332 24.8C19.9998 24.8 20.2665 25.0534 20.2665 25.3334C20.2665 25.44 20.4665 25.8534 20.7198 26.24C20.9732 26.6134 21.1865 27.04 21.1865 27.16C21.1865 27.2934 21.2132 27.8534 21.2532 28.4C21.3198 29.24 21.2932 29.4667 21.0665 29.8267C20.7732 30.32 19.8798 30.96 19.4132 31C18.8398 31.0667 16.7332 31.6134 16.5865 31.7467C16.5065 31.8134 16.1998 31.8934 15.9198 31.92C15.1998 31.9734 14.4398 32.4 13.7065 33.16C13.0265 33.8534 12.0932 35.3067 12.2132 35.48C12.2532 35.5467 12.1198 35.92 11.9332 36.32C11.4932 37.2667 11.2132 38.5067 11.4265 38.64C11.5065 38.6933 11.6132 38.8934 11.6665 39.0934C11.7732 39.52 12.2532 39.9867 12.6665 40.0667C12.8265 40.0934 13.0665 40.2134 13.1865 40.32C13.4398 40.5467 14.3865 40.8267 14.5598 40.72C14.6265 40.6667 14.9332 40.7334 15.2398 40.8533C16.1465 41.1867 19.1732 41.3467 24.9332 41.36C29.8132 41.3734 32.7599 41.2667 33.0132 41.0534C33.1199 40.96 33.3999 40.9333 33.6532 40.9733C34.6532 41.1333 37.4265 40.1734 38.0799 39.4534C38.4932 38.9867 38.5199 37.72 38.1465 36.8934C37.9865 36.5467 37.8799 36.2267 37.8932 36.1734C37.9465 35.96 37.5732 35.0934 37.3332 34.8667C37.1865 34.7334 37.0665 34.52 37.0665 34.4C37.0665 34 35.4265 32.4 34.8532 32.2534C34.5599 32.1734 34.2399 32.0134 34.1199 31.9067C33.9865 31.8 33.5465 31.68 33.1199 31.64C32.6799 31.6134 32.1332 31.48 31.8799 31.3734C31.6265 31.2667 31.1865 31.1334 30.8799 31.0934C30.3599 31.0267 29.7865 30.68 28.9198 29.8934C28.5865 29.6 28.5599 29.52 28.5998 28.4C28.6265 27.3067 28.6665 27.16 29.1598 26.2534C29.5599 25.52 29.9065 25.1067 30.4799 24.6534C31.6265 23.76 32.0532 22.88 32.0399 21.4134C32.0399 20.2134 31.8265 19.68 31.2932 19.5467C31.0132 19.48 30.9999 19.4134 31.0399 18.4667C31.0799 17.8934 31.0399 17.3867 30.9599 17.2934C30.8799 17.2134 30.8265 16.8667 30.8265 16.5334C30.8532 15.24 29.3599 13 28.1599 12.5067C27.9599 12.4267 27.5465 12.24 27.2399 12.1067C26.6132 11.8134 24.1598 11.6667 23.3732 11.8534Z"
      />
    </g>
  </g>
</svg>
