<svg version="1.0" xmlns="http://www.w3.org/2000/svg"
     width="225.000000pt" height="225.000000pt" viewBox="0 0 225.000000 225.000000"
     preserveAspectRatio="xMidYMid meet">
  <g transform="translate(0.000000,225.000000) scale(0.100000,-0.100000)"
     fill="green" stroke="none">
    <path d="M954 2206 c-61 -19 -154 -74 -195 -115 -20 -20 -55 -70 -78 -112 -33
-61 -43 -93 -52 -160 -13 -103 -4 -297 17 -370 21 -72 94 -239 104 -239 5 0
11 -9 15 -20 3 -10 24 -41 46 -67 35 -43 39 -53 39 -105 0 -75 -19 -95 -140
-147 -204 -88 -337 -169 -428 -259 -87 -87 -92 -100 -92 -229 l0 -111 42 -44
c60 -61 118 -92 228 -121 186 -50 247 -57 562 -59 163 -2 300 0 304 5 4 4 1
14 -7 22 -13 12 -105 67 -169 101 -40 21 -96 85 -114 132 -36 94 -14 181 76
306 88 122 208 156 353 101 39 -14 87 -39 107 -55 52 -43 71 -39 118 23 22 30
40 58 40 63 0 8 -137 85 -152 84 -3 0 -41 16 -82 35 -42 19 -82 35 -89 35 -26
0 -59 48 -64 93 -5 43 21 116 47 132 29 18 105 157 147 270 23 60 42 199 42
295 0 122 -19 214 -61 293 -52 96 -99 142 -198 190 -83 42 -85 42 -205 44 -78
2 -134 -2 -161 -11z"/>
    <path d="M2183 912 c-35 -21 -71 -44 -80 -52 -10 -8 -32 -24 -48 -34 -53 -34
-204 -180 -254 -246 -14 -19 -33 -41 -41 -50 -8 -8 -35 -50 -59 -91 l-45 -76
-37 47 c-78 99 -181 169 -263 177 -49 5 -55 3 -89 -27 -20 -17 -51 -56 -68
-87 -52 -90 -27 -148 86 -198 28 -13 64 -35 80 -49 17 -14 34 -26 38 -26 15 0
148 -143 178 -191 3 -6 38 -9 78 -7 l72 3 24 45 c13 25 58 121 101 214 43 93
93 189 111 215 18 25 33 49 33 53 0 11 112 156 184 238 63 72 66 77 66 128 0
28 -1 52 -2 51 -2 0 -31 -17 -65 -37z"/>
  </g>
</svg>
