
<svg version="1.0" xmlns="http://www.w3.org/2000/svg"
     width="225.000000pt" height="225.000000pt" viewBox="0 0 225.000000 225.000000"
     preserveAspectRatio="xMidYMid meet">
  <g transform="translate(0.000000,225.000000) scale(0.100000,-0.100000)"
     fill="#000000" stroke="none">
    <path d="M954 2216 c-85 -27 -145 -67 -208 -137 -97 -107 -132 -232 -123 -430
4 -98 10 -133 39 -217 38 -111 100 -225 161 -299 46 -56 57 -81 57 -130 0 -66
-27 -103 -99 -136 -298 -135 -425 -209 -514 -300 -62 -64 -87 -113 -94 -190
-13 -148 49 -225 236 -291 181 -65 572 -97 928 -78 420 24 645 91 718 216 21
36 25 55 25 125 0 102 -13 135 -87 212 -98 103 -254 196 -458 274 -57 22 -112
51 -127 66 -25 24 -28 35 -28 89 0 69 5 81 69 165 120 157 191 360 191 548 0
261 -133 454 -359 521 -84 25 -238 21 -327 -8z"/>
  </g>
</svg>
